<?xml version="1.0" encoding="UTF-8" standalone="no"?>
<svg
   xmlns:dc="http://purl.org/dc/elements/1.1/"
   xmlns:cc="http://creativecommons.org/ns#"
   xmlns:rdf="http://www.w3.org/1999/02/22-rdf-syntax-ns#"
   xmlns:svg="http://www.w3.org/2000/svg"
   xmlns="http://www.w3.org/2000/svg"
   id="svg1529"
   version="1.1"
   viewBox="0 0 210.87292 185.20833"
   height="700"
   width="797">
  <defs
     id="defs1523" />
  <metadata
     id="metadata1526">
    <rdf:RDF>
      <cc:Work
         rdf:about="">
        <dc:format>image/svg+xml</dc:format>
        <dc:type
           rdf:resource="http://purl.org/dc/dcmitype/StillImage" />
        <dc:title></dc:title>
      </cc:Work>
    </rdf:RDF>
  </metadata>
  <g
     transform="translate(0,-111.79166)"
     id="layer1">
    <g
       id="g3640">
      <path
         style="fill:#006680;fill-opacity:1;stroke:none;stroke-width:0.64950687;stroke-linecap:butt;stroke-linejoin:miter;stroke-miterlimit:4;stroke-dasharray:none;stroke-opacity:1"
         d="m 211.02509,216.3661 -55.48492,39.74097 -0.98854,-21.48404 10.96439,-14.08933 18.83141,-11.31353 z"
         id="path1140" />
      <path
         style="fill:#006680;fill-opacity:1;stroke:none;stroke-width:0.64950687px;stroke-linecap:butt;stroke-linejoin:miter;stroke-opacity:1"
         d="m -0.15217203,195.60214 21.05228003,-13.09796 7.663839,5.20471 -1.814491,2.74561 -3.461858,1.45638 z"
         id="path1138" />
      <path
         style="color:#000000;font-style:normal;font-variant:normal;font-weight:normal;font-stretch:normal;font-size:medium;line-height:normal;font-family:sans-serif;font-variant-ligatures:normal;font-variant-position:normal;font-variant-caps:normal;font-variant-numeric:normal;font-variant-alternates:normal;font-feature-settings:normal;text-indent:0;text-align:start;text-decoration:none;text-decoration-line:none;text-decoration-style:solid;text-decoration-color:#000000;letter-spacing:normal;word-spacing:normal;text-transform:none;writing-mode:lr-tb;direction:ltr;text-orientation:mixed;dominant-baseline:auto;baseline-shift:baseline;text-anchor:start;white-space:normal;shape-padding:0;clip-rule:nonzero;display:inline;overflow:visible;visibility:visible;opacity:1;isolation:auto;mix-blend-mode:normal;color-interpolation:sRGB;color-interpolation-filters:linearRGB;solid-color:#000000;solid-opacity:1;vector-effect:none;fill:#006680;fill-opacity:1;fill-rule:evenodd;stroke:none;stroke-width:1.94852066;stroke-linecap:round;stroke-linejoin:round;stroke-miterlimit:4;stroke-dasharray:none;stroke-dashoffset:0;stroke-opacity:1;color-rendering:auto;image-rendering:auto;shape-rendering:auto;text-rendering:auto;enable-background:accumulate"
         d="m 115.28808,118.09426 c -1.54463,0.0735 -2.92031,0.99746 -3.58112,2.39274 l -15.313511,32.36573 -3.25414,-14.9546 c -0.382226,-1.75329 -1.843747,-3.08663 -3.636938,-3.27807 -1.792048,-0.19152 -3.509856,0.79594 -4.251112,2.44061 l -12.609714,27.72382 -11.820109,-14.62759 -0.01633,-0.0245 c -0.01633,-0.0204 -0.03675,-0.0433 -0.05595,-0.0637 v -0.008 c -1.136793,-1.40512 -3.055596,-1.91443 -4.737591,-1.27612 -1.685466,0.63965 -2.777421,2.2978 -2.695831,4.09957 l 1.220303,25.99309 -35.891041,-6.82725 c -1.805095,-0.34302 -3.637992,0.53565 -4.49037,2.16941 -0.727012,1.39341 -0.432903,2.98455 0.438669,4.24311 0.0392,0.26094 0.162405,0.50159 0.350944,0.68592 0.0027,0.003 0.0053,0.004 0.0082,0.008 l 24.844562,23.99917 -21.231534,21.32722 c -1.198517,1.21263 -1.540163,3.03632 -0.861383,4.60206 0.679079,1.56635 2.244029,2.56609 3.948015,2.52032 0.0053,4e-5 0.01062,4e-5 0.01593,0 l 21.24746,-0.70185 -5.686702,31.40862 c -0.04533,0.23929 -0.01633,0.48664 0.07963,0.70985 l 0.0082,0.008 c -0.0041,1.37919 0.515677,2.72078 1.690856,3.50932 1.389773,0.93245 3.201545,0.94327 4.602057,0.0408 l 22.79479,-14.53191 1.60314,18.32835 c 0.153135,1.75505 1.391814,3.2338 3.094595,3.68484 1.705353,0.4516 3.514348,-0.22664 4.5143,-1.67493 l 20.386077,-29.5104 4.330868,29.47851 c 0.23644,1.60783 1.37985,2.93067 2.93509,3.39767 1.55691,0.46737 3.2481,-0.002 4.33086,-1.2203 0.003,-0.003 0.004,-0.004 0.008,-0.008 0.0245,-0.0286 0.0494,-0.0576 0.0719,-0.0878 l 11.39742,-12.84101 14.7552,26.93425 0.008,0.008 c 0.93458,1.69563 2.92831,2.53367 4.79346,2.00991 1.86514,-0.52364 3.13143,-2.27881 3.04673,-4.21122 4e-5,-0.003 4e-5,-0.004 0,-0.008 l -1.53931,-32.85226 8.65372,12.02748 c 0.95651,1.32733 2.60395,1.97777 4.21122,1.65896 1.60677,-0.31852 2.87984,-1.54679 3.2541,-3.14245 l 6.87515,-29.33493 26.33707,-22.67142 c 1.62805,-0.7729 2.585,-2.51035 2.36085,-4.29897 -0.22419,-1.7885 -1.58296,-3.23426 -3.34981,-3.58112 l -15.52194,2.70804 10.37647,-33.80136 c 0.59605,-1.94236 -0.3079,-4.05697 -2.12155,-4.96892 -1.54209,-0.77536 -3.26607,-0.31444 -4.52226,0.7896 -0.004,0.004 -0.0122,0.004 -0.0163,0.008 -0.28748,0.0621 -0.54263,0.22623 -0.71781,0.46259 l -12.44221,16.99641 -3.50136,-43.53982 c 4e-5,-0.003 4e-5,-0.004 0,-0.008 -0.17192,-2.00546 -1.77016,-3.6133 -3.77255,-3.80445 -2.00085,-0.1907 -3.87007,1.08632 -4.41858,3.0228 l -7.49725,26.62317 -6.42053,-25.55441 c -0.008,-0.0286 -0.0163,-0.0588 -0.0245,-0.0878 4e-5,-0.004 4e-5,-0.0122 0,-0.0163 -0.41751,-1.63719 -1.78457,-2.86358 -3.46147,-3.10255 -1.67803,-0.2393 -3.33515,0.55863 -4.19528,2.01787 v 0.008 c -0.0204,0.0327 -0.0368,0.0629 -0.0559,0.0956 l -6.83526,11.6925 -3.70076,-31.87922 c 4e-5,-0.004 4e-5,-0.0123 0,-0.0163 -0.25727,-2.16292 -2.17244,-3.78337 -4.34679,-3.68479 z m 18.55168,170.44253 c 0.0519,0.096 0.11597,0.18458 0.19152,0.26339 z"
         id="path1064" />
      <path
         style="color:#000000;font-style:normal;font-variant:normal;font-weight:normal;font-stretch:normal;font-size:medium;line-height:normal;font-family:sans-serif;font-variant-ligatures:normal;font-variant-position:normal;font-variant-caps:normal;font-variant-numeric:normal;font-variant-alternates:normal;font-feature-settings:normal;text-indent:0;text-align:start;text-decoration:none;text-decoration-line:none;text-decoration-style:solid;text-decoration-color:#000000;letter-spacing:normal;word-spacing:normal;text-transform:none;writing-mode:lr-tb;direction:ltr;text-orientation:mixed;dominant-baseline:auto;baseline-shift:baseline;text-anchor:start;white-space:normal;shape-padding:0;clip-rule:nonzero;display:inline;overflow:visible;visibility:visible;opacity:1;isolation:auto;mix-blend-mode:normal;color-interpolation:sRGB;color-interpolation-filters:linearRGB;solid-color:#000000;solid-opacity:1;vector-effect:none;fill:#ffe6d5;fill-opacity:1;fill-rule:evenodd;stroke:none;stroke-width:1.94852066;stroke-linecap:round;stroke-linejoin:round;stroke-miterlimit:4;stroke-dasharray:none;stroke-dashoffset:0;stroke-opacity:1;color-rendering:auto;image-rendering:auto;shape-rendering:auto;text-rendering:auto;enable-background:accumulate"
         d="m 115.40732,120.65419 c -0.59776,0.0286 -1.13079,0.38549 -1.38647,0.9264 L 95.4991,160.73225 90.643411,138.43946 c -0.325872,-1.53352 -2.422025,-1.7573 -3.064131,-0.3271 L 73.254861,169.61853 58.755256,151.6729 c -0.983822,-1.21361 -2.946156,-0.46986 -2.878409,1.09098 l 1.371682,29.23132 -39.082009,-7.43232 c -1.577058,-0.29933 -2.583185,1.63001 -1.434982,2.75178 l 26.711679,25.80215 -23.058819,23.16853 c -1.027781,1.03878 -0.26425,2.8002 1.196516,2.76022 l 24.422028,-0.8061 -6.252689,34.52804 c -0.259309,1.39704 1.276452,2.42795 2.47111,1.65868 l 26.367697,-16.81244 1.970991,22.53969 c 0.129859,1.51575 2.087619,2.03396 2.950117,0.78079 l 24.088638,-34.86147 5.271444,35.90605 c 0.19683,1.36437 1.89867,1.87601 2.81507,0.84621 l 13.88552,-15.65813 16.51065,30.13454 c 0.82746,1.5015 3.1153,0.85804 3.03877,-0.85466 l -1.94563,-41.47294 13.69346,19.03032 c 0.81182,1.13153 2.57843,0.77997 2.89528,-0.57611 L 159.14674,222.24 187.5642,210.12379 c 1.41395,-0.67008 1.15158,-2.75652 -0.38427,-3.05564 l -17.50534,1.73369 11.2139,-36.52014 c 0.53316,-1.7439 -1.77387,-2.9034 -2.85517,-1.43498 l -16.50858,22.55443 -4.06012,-50.40566 c -0.14905,-1.80079 -2.68803,-2.04364 -3.17594,-0.30382 l -10.09548,35.86595 -8.78926,-34.95645 c -0.35772,-1.40157 -2.23275,-1.66831 -2.96702,-0.42204 l -10.76866,18.40782 -4.57715,-39.50408 c -0.10005,-0.84408 -0.83485,-1.46764 -1.68396,-1.42864 z"
         id="path1058" />
      <path
         style="color:#000000;font-style:normal;font-variant:normal;font-weight:normal;font-stretch:normal;font-size:medium;line-height:normal;font-family:sans-serif;font-variant-ligatures:normal;font-variant-position:normal;font-variant-caps:normal;font-variant-numeric:normal;font-variant-alternates:normal;font-feature-settings:normal;text-indent:0;text-align:start;text-decoration:none;text-decoration-line:none;text-decoration-style:solid;text-decoration-color:#000000;letter-spacing:normal;word-spacing:normal;text-transform:none;writing-mode:lr-tb;direction:ltr;text-orientation:mixed;dominant-baseline:auto;baseline-shift:baseline;text-anchor:start;white-space:normal;shape-padding:0;clip-rule:nonzero;display:inline;overflow:visible;visibility:visible;opacity:1;isolation:auto;mix-blend-mode:normal;color-interpolation:sRGB;color-interpolation-filters:linearRGB;solid-color:#000000;solid-opacity:1;vector-effect:none;fill:#006680;fill-opacity:1;fill-rule:nonzero;stroke:none;stroke-width:3.59124732;stroke-linecap:round;stroke-linejoin:miter;stroke-miterlimit:4;stroke-dasharray:none;stroke-dashoffset:0;stroke-opacity:1;color-rendering:auto;image-rendering:auto;shape-rendering:auto;text-rendering:auto;enable-background:accumulate"
         d="m -0.15217203,195.60214 v 2.75166 74.86868 L 211.02509,216.3661 v -77.62033 z"
         id="path1135" />
      <path
         style="color:#000000;font-style:normal;font-variant:normal;font-weight:normal;font-stretch:normal;font-size:medium;line-height:normal;font-family:sans-serif;font-variant-ligatures:normal;font-variant-position:normal;font-variant-caps:normal;font-variant-numeric:normal;font-variant-alternates:normal;font-feature-settings:normal;text-indent:0;text-align:start;text-decoration:none;text-decoration-line:none;text-decoration-style:solid;text-decoration-color:#000000;letter-spacing:normal;word-spacing:normal;text-transform:none;writing-mode:lr-tb;direction:ltr;text-orientation:mixed;dominant-baseline:auto;baseline-shift:baseline;text-anchor:start;white-space:normal;shape-padding:0;clip-rule:nonzero;display:inline;overflow:visible;visibility:visible;opacity:1;isolation:auto;mix-blend-mode:normal;color-interpolation:sRGB;color-interpolation-filters:linearRGB;solid-color:#000000;solid-opacity:1;vector-effect:none;fill:#006680;fill-opacity:1;fill-rule:nonzero;stroke:none;stroke-width:3.24753428;stroke-linecap:round;stroke-linejoin:miter;stroke-miterlimit:4;stroke-dasharray:none;stroke-dashoffset:0;stroke-opacity:1;color-rendering:auto;image-rendering:auto;shape-rendering:auto;text-rendering:auto;enable-background:accumulate"
         d="M 24.492555,192.91328 187.394,149.26398 v 66.62177 l -162.901445,43.6493 z"
         id="rect1129" />
      <path
         transform="matrix(0.96592583,-0.25881905,0,1,0,0)"
         style="opacity:1;fill:#ff5555;fill-opacity:1;stroke:none;stroke-width:0.3634944;stroke-linecap:round;stroke-linejoin:round;stroke-miterlimit:4;stroke-dasharray:0.72698878, 2.18096646;stroke-dashoffset:0;stroke-opacity:1"
         d="M 4.3099699,198.31142 H 215.0511 v 72.12024 H 4.3099699 Z"
         id="rect1083" />
      <g
         aria-label="SUPERHERO"
         transform="skewY(-15)"
         style="font-style:italic;font-variant:normal;font-weight:normal;font-stretch:condensed;font-size:46.71756744px;line-height:1.25;font-family:'League Gothic';-inkscape-font-specification:'League Gothic, Italic Condensed';font-variant-ligatures:normal;font-variant-caps:normal;font-variant-numeric:normal;font-feature-settings:normal;text-align:start;letter-spacing:0px;word-spacing:0px;writing-mode:lr-tb;text-anchor:start;fill:#ffffff;fill-opacity:1;stroke:none;stroke-width:0.64950687"
         id="text1071">
        <path
           d="m 69.576657,214.71088 c 0.607328,-2.84977 1.775267,-9.15664 -2.756337,-9.06321 -3.737405,0.0934 -5.419237,5.0455 -6.026566,8.03542 -0.560611,2.66291 -0.233588,6.07329 0.233588,8.82962 0.981069,4.81191 1.494962,7.38138 0.887634,10.27787 -0.467176,2.19573 -0.794199,3.31695 -1.494962,3.31695 -1.027787,0 0,-4.81191 0.233587,-5.88642 l -3.924275,0.56061 c -0.607329,3.13008 -2.149008,9.95085 2.709619,9.95085 4.017711,0 5.652825,-4.90535 6.353589,-8.17558 0.747481,-3.4571 0.140153,-6.72733 -0.654046,-10.79176 -0.607328,-3.41038 -1.027787,-5.83969 -0.560611,-8.08214 0.420458,-2.00885 0.794199,-3.41038 1.35481,-3.41038 0.747481,0 -0.04672,3.78413 -0.280306,4.99878 z"
           style="font-style:italic;font-variant:normal;font-weight:normal;font-stretch:condensed;font-size:46.71756744px;font-family:'League Gothic';-inkscape-font-specification:'League Gothic, Italic Condensed';font-variant-ligatures:normal;font-variant-caps:normal;font-variant-numeric:normal;font-feature-settings:normal;text-align:start;writing-mode:lr-tb;text-anchor:start;fill:#ffffff;stroke-width:0.64950687"
           id="path3594" />
        <path
           d="m 78.655194,206.02141 -5.886413,27.75024 c -0.233588,1.12122 -0.560611,2.05557 -1.121222,2.05557 -0.607328,0 -0.607328,-0.74748 -0.327023,-2.05557 l 5.886414,-27.75024 h -3.877559 l -5.839695,27.75024 c -0.747482,3.50382 -0.607329,6.96092 3.083359,6.96092 3.503818,0 5.232368,-3.08336 6.073284,-6.96092 l 5.886413,-27.75024 z"
           style="font-style:italic;font-variant:normal;font-weight:normal;font-stretch:condensed;font-size:46.71756744px;font-family:'League Gothic';-inkscape-font-specification:'League Gothic, Italic Condensed';font-variant-ligatures:normal;font-variant-caps:normal;font-variant-numeric:normal;font-feature-settings:normal;text-align:start;writing-mode:lr-tb;text-anchor:start;fill:#ffffff;stroke-width:0.64950687"
           id="path3596" />
        <path
           d="m 78.047865,240.35883 h 3.83084 l 2.943207,-13.73497 c 1.401527,-0.0467 2.943207,-0.56061 4.111146,-1.96214 1.35481,-1.63511 2.569466,-4.48488 3.410382,-8.36244 0.840917,-3.87756 0.794199,-6.58718 0.09344,-8.22229 -0.654046,-1.5884 -1.635115,-2.05558 -3.176795,-2.05558 h -3.924276 z m 10.090994,-29.29192 c 0.420459,0 0.981069,0 1.074504,0.51389 0.233588,0.84092 -0.233587,2.98993 -0.654045,4.90535 -0.420459,1.91542 -0.794199,3.69069 -1.308092,4.43817 -0.327023,0.46717 -0.981069,0.56061 -1.35481,0.56061 z"
           style="font-style:italic;font-variant:normal;font-weight:normal;font-stretch:condensed;font-size:46.71756744px;font-family:'League Gothic';-inkscape-font-specification:'League Gothic, Italic Condensed';font-variant-ligatures:normal;font-variant-caps:normal;font-variant-numeric:normal;font-feature-settings:normal;text-align:start;writing-mode:lr-tb;text-anchor:start;fill:#ffffff;stroke-width:0.64950687"
           id="path3598" />
        <path
           d="m 89.271032,240.35883 h 7.708399 l 1.121222,-5.18565 h -3.877559 l 2.008856,-9.43695 h 2.803054 l 1.167936,-5.51268 h -2.803051 l 1.91542,-9.01649 h 3.877561 l 1.12122,-5.18565 h -7.755117 z"
           style="font-style:italic;font-variant:normal;font-weight:normal;font-stretch:condensed;font-size:46.71756744px;font-family:'League Gothic';-inkscape-font-specification:'League Gothic, Italic Condensed';font-variant-ligatures:normal;font-variant-caps:normal;font-variant-numeric:normal;font-feature-settings:normal;text-align:start;writing-mode:lr-tb;text-anchor:start;fill:#ffffff;stroke-width:0.64950687"
           id="path3600" />
        <path
           d="m 108.93183,240.35883 1.16794,-16.63146 c 1.54168,-1.44824 2.75633,-4.5316 3.4571,-7.80183 1.35481,-6.49374 0.60732,-9.90413 -3.03665,-9.90413 h -3.92427 l -7.287942,34.33742 h 3.830842 l 3.22351,-14.94963 -1.21466,14.94963 z m 0.46717,-29.33864 c 0.23359,0 0.74748,-0.0467 0.98107,0.46718 0.23359,0.56061 -0.0467,2.10229 -0.56061,4.62504 -0.51389,2.47603 -0.93435,4.20458 -1.49496,4.81191 -0.32702,0.37374 -0.7942,0.51389 -1.12122,0.51389 z"
           style="font-style:italic;font-variant:normal;font-weight:normal;font-stretch:condensed;font-size:46.71756744px;font-family:'League Gothic';-inkscape-font-specification:'League Gothic, Italic Condensed';font-variant-ligatures:normal;font-variant-caps:normal;font-variant-numeric:normal;font-feature-settings:normal;text-align:start;writing-mode:lr-tb;text-anchor:start;fill:#ffffff;stroke-width:0.64950687"
           id="path3602" />
        <path
           d="m 116.13071,240.35883 h 3.87756 l 7.33466,-34.33742 h -3.87756 l -3.03664,14.20214 h -1.49496 l 3.03664,-14.20214 h -3.87756 l -7.28794,34.33742 h 3.83084 l 3.22351,-14.94963 h 1.49497 z"
           style="font-style:italic;font-variant:normal;font-weight:normal;font-stretch:condensed;font-size:46.71756744px;font-family:'League Gothic';-inkscape-font-specification:'League Gothic, Italic Condensed';font-variant-ligatures:normal;font-variant-caps:normal;font-variant-numeric:normal;font-feature-settings:normal;text-align:start;writing-mode:lr-tb;text-anchor:start;fill:#ffffff;stroke-width:0.64950687"
           id="path3604" />
        <path
           d="m 122.84928,240.35883 h 7.7084 l 1.12122,-5.18565 h -3.87755 l 2.00885,-9.43695 h 2.80305 l 1.16794,-5.51268 h -2.80305 l 1.91542,-9.01649 h 3.87756 l 1.12122,-5.18565 h -7.75512 z"
           style="font-style:italic;font-variant:normal;font-weight:normal;font-stretch:condensed;font-size:46.71756744px;font-family:'League Gothic';-inkscape-font-specification:'League Gothic, Italic Condensed';font-variant-ligatures:normal;font-variant-caps:normal;font-variant-numeric:normal;font-feature-settings:normal;text-align:start;writing-mode:lr-tb;text-anchor:start;fill:#ffffff;stroke-width:0.64950687"
           id="path3606" />
        <path
           d="m 142.51008,240.35883 1.16794,-16.63146 c 1.54168,-1.44824 2.75634,-4.5316 3.4571,-7.80183 1.35481,-6.49374 0.60733,-9.90413 -3.03664,-9.90413 h -3.92428 l -7.28794,34.33742 h 3.83084 l 3.22352,-14.94963 -1.21466,14.94963 z m 0.46718,-29.33864 c 0.23359,0 0.74748,-0.0467 0.98107,0.46718 0.23358,0.56061 -0.0467,2.10229 -0.56061,4.62504 -0.5139,2.47603 -0.93436,4.20458 -1.49497,4.81191 -0.32702,0.37374 -0.7942,0.51389 -1.12122,0.51389 z"
           style="font-style:italic;font-variant:normal;font-weight:normal;font-stretch:condensed;font-size:46.71756744px;font-family:'League Gothic';-inkscape-font-specification:'League Gothic, Italic Condensed';font-variant-ligatures:normal;font-variant-caps:normal;font-variant-numeric:normal;font-feature-settings:normal;text-align:start;writing-mode:lr-tb;text-anchor:start;fill:#ffffff;stroke-width:0.64950687"
           id="path3608" />
        <path
           d="m 159.3795,212.60859 c 0.60733,-2.80305 0.5139,-6.96092 -3.22351,-6.96092 -3.50382,0 -5.41924,3.41039 -6.16672,6.96092 l -4.48488,21.16306 c -0.65405,3.27023 -0.37374,6.96092 3.22351,6.96092 3.55053,0 5.37252,-3.41039 6.12,-6.96092 z m -8.40916,21.16306 c -0.18687,1.0745 -0.70076,2.05557 -1.16794,2.05557 -0.42046,0 -0.60733,-0.7942 -0.37374,-2.05557 l 4.53161,-21.16306 c 0.23358,-1.12122 0.70076,-2.05557 1.21465,-2.05557 0.5139,0 0.56061,0.98107 0.32703,2.05557 z"
           style="font-style:italic;font-variant:normal;font-weight:normal;font-stretch:condensed;font-size:46.71756744px;font-family:'League Gothic';-inkscape-font-specification:'League Gothic, Italic Condensed';font-variant-ligatures:normal;font-variant-caps:normal;font-variant-numeric:normal;font-feature-settings:normal;text-align:start;writing-mode:lr-tb;text-anchor:start;fill:#ffffff;stroke-width:0.64950687"
           id="path3610" />
      </g>
      <g
         aria-label="4 HIRE"
         transform="skewY(-15)"
         style="font-style:italic;font-variant:normal;font-weight:normal;font-stretch:condensed;font-size:23.67658806px;line-height:1.25;font-family:'League Gothic';-inkscape-font-specification:'League Gothic, Italic Condensed';font-variant-ligatures:normal;font-variant-caps:normal;font-variant-numeric:normal;font-feature-settings:normal;text-align:start;letter-spacing:0px;word-spacing:0px;writing-mode:lr-tb;text-anchor:start;fill:#ffffff;fill-opacity:1;stroke:none;stroke-width:0.64950687"
         id="text1075">
        <path
           d="m 79.796005,259.92175 h 1.681038 l 0.828681,-3.78825 h 0.710297 l 0.473532,-2.24928 h -0.710298 l 2.415012,-11.36476 h -1.917803 l -4.853701,11.36476 -0.449855,2.24928 h 2.651778 z m 1.349566,-6.03753 h -1.065447 l 2.201923,-5.37458 z"
           style="font-style:italic;font-variant:normal;font-weight:normal;font-stretch:condensed;font-size:23.67658806px;font-family:'League Gothic';-inkscape-font-specification:'League Gothic, Italic Condensed';font-variant-ligatures:normal;font-variant-caps:normal;font-variant-numeric:normal;font-feature-settings:normal;text-align:start;letter-spacing:5.83969593px;writing-mode:lr-tb;text-anchor:start;fill:#ffffff;stroke-width:0.64950687"
           id="path3583" />
        <path
           d="m 99.946807,259.92175 h 1.965153 l 3.71723,-17.40229 h -1.96516 l -1.53898,7.19768 h -0.75765 l 1.53898,-7.19768 h -1.96516 l -3.693544,17.40229 h 1.94148 l 1.633684,-7.57651 h 0.75765 z"
           style="font-style:italic;font-variant:normal;font-weight:normal;font-stretch:condensed;font-size:23.67658806px;font-family:'League Gothic';-inkscape-font-specification:'League Gothic, Italic Condensed';font-variant-ligatures:normal;font-variant-caps:normal;font-variant-numeric:normal;font-feature-settings:normal;text-align:start;letter-spacing:5.83969593px;writing-mode:lr-tb;text-anchor:start;fill:#ffffff;stroke-width:0.64950687"
           id="path3585" />
        <path
           d="m 109.19149,259.92175 h 1.94148 l 3.71723,-17.40229 h -1.96516 z"
           style="font-style:italic;font-variant:normal;font-weight:normal;font-stretch:condensed;font-size:23.67658806px;font-family:'League Gothic';-inkscape-font-specification:'League Gothic, Italic Condensed';font-variant-ligatures:normal;font-variant-caps:normal;font-variant-numeric:normal;font-feature-settings:normal;text-align:start;letter-spacing:5.83969593px;writing-mode:lr-tb;text-anchor:start;fill:#ffffff;stroke-width:0.64950687"
           id="path3587" />
        <path
           d="m 123.28433,259.92175 0.59191,-8.42886 c 0.78133,-0.73398 1.39692,-2.29663 1.75207,-3.95399 0.68662,-3.29105 0.3078,-5.01944 -1.53898,-5.01944 h -1.98883 l -3.69355,17.40229 h 1.94148 l 1.63369,-7.57651 -0.6156,7.57651 z m 0.23676,-14.86889 c 0.11839,0 0.37883,-0.0237 0.49721,0.23676 0.11839,0.28412 -0.0237,1.06545 -0.28412,2.34398 -0.26044,1.25486 -0.47353,2.1309 -0.75765,2.43869 -0.16573,0.18942 -0.4025,0.26044 -0.56824,0.26044 z"
           style="font-style:italic;font-variant:normal;font-weight:normal;font-stretch:condensed;font-size:23.67658806px;font-family:'League Gothic';-inkscape-font-specification:'League Gothic, Italic Condensed';font-variant-ligatures:normal;font-variant-caps:normal;font-variant-numeric:normal;font-feature-settings:normal;text-align:start;letter-spacing:5.83969593px;writing-mode:lr-tb;text-anchor:start;fill:#ffffff;stroke-width:0.64950687"
           id="path3589" />
        <path
           d="m 130.07331,259.92175 h 3.90663 l 0.56824,-2.6281 h -1.96516 l 1.0181,-4.78267 h 1.42059 l 0.59192,-2.79384 h -1.4206 l 0.97074,-4.56958 h 1.96516 l 0.56824,-2.6281 h -3.93032 z"
           style="font-style:italic;font-variant:normal;font-weight:normal;font-stretch:condensed;font-size:23.67658806px;font-family:'League Gothic';-inkscape-font-specification:'League Gothic, Italic Condensed';font-variant-ligatures:normal;font-variant-caps:normal;font-variant-numeric:normal;font-feature-settings:normal;text-align:start;letter-spacing:5.83969593px;writing-mode:lr-tb;text-anchor:start;fill:#ffffff;stroke-width:0.64950687"
           id="path3591" />
      </g>
      <path
         style="color:#000000;font-style:normal;font-variant:normal;font-weight:normal;font-stretch:normal;font-size:medium;line-height:normal;font-family:sans-serif;font-variant-ligatures:normal;font-variant-position:normal;font-variant-caps:normal;font-variant-numeric:normal;font-variant-alternates:normal;font-feature-settings:normal;text-indent:0;text-align:start;text-decoration:none;text-decoration-line:none;text-decoration-style:solid;text-decoration-color:#000000;letter-spacing:normal;word-spacing:normal;text-transform:none;writing-mode:lr-tb;direction:ltr;text-orientation:mixed;dominant-baseline:auto;baseline-shift:baseline;text-anchor:start;white-space:normal;shape-padding:0;clip-rule:nonzero;display:inline;overflow:visible;visibility:visible;opacity:1;isolation:auto;mix-blend-mode:normal;color-interpolation:sRGB;color-interpolation-filters:linearRGB;solid-color:#000000;solid-opacity:1;vector-effect:none;fill:#ffffff;fill-opacity:1;fill-rule:nonzero;stroke:none;stroke-width:0.35827965;stroke-linecap:butt;stroke-linejoin:miter;stroke-miterlimit:4;stroke-dasharray:0.71655915, 0.71655915;stroke-dashoffset:0;stroke-opacity:1;color-rendering:auto;image-rendering:auto;shape-rendering:auto;text-rendering:auto;enable-background:accumulate"
         d="m 4.3367655,201.1476 -1.57e-5,0.57942 1.1603545,-0.3111 2.55e-5,-0.57942 z m 2.7052475,-0.72491 -9.7e-6,0.57942 1.5571105,-0.41745 9.8e-6,-0.57942 z m 3.102095,-0.83118 -1.5e-5,0.57938 1.560078,-0.418 2.4e-5,-0.57946 z m 3.10512,-0.83202 -9.8e-5,0.57942 1.557086,-0.41745 1.48e-4,-0.57943 z m 3.102095,-0.83123 -1.49e-4,0.57943 1.557186,-0.41745 9.9e-5,-0.57943 z m 3.102045,-0.83118 -10e-5,0.57943 1.557137,-0.41745 9.9e-5,-0.57943 z m 3.102144,-0.83122 -9.9e-5,0.57942 1.560216,-0.41841 1e-4,-0.57939 z m 3.105076,-0.83198 -10e-5,0.57947 1.557137,-0.41746 10e-5,-0.57943 z m 3.102045,-0.83122 -10e-5,0.57947 1.544909,-0.41361 9.9e-5,-0.57938 z m 3.102144,-0.83115 -1.49e-4,0.57939 1.545057,-0.41402 10e-5,-0.57938 z m 3.105176,-0.83206 -1.49e-4,0.57947 1.545108,-0.41402 1.48e-4,-0.57944 z m 3.101995,-0.83122 -10e-5,0.57947 1.544909,-0.41361 1e-4,-0.57942 z m 3.102143,-0.83114 -9.8e-5,0.57939 1.544859,-0.41361 1.48e-4,-0.57943 z m 3.102045,-0.83123 -1.48e-4,0.5794 1.545107,-0.41403 1e-4,-0.57946 z m 3.105127,-0.83202 -10e-5,0.57943 1.544909,-0.4136 1e-4,-0.57939 z m 3.102144,-0.83122 -9.9e-5,0.57942 1.544909,-0.4136 9.8e-5,-0.57943 z m 3.089917,-0.82795 -10e-5,0.57938 1.557037,-0.41744 1.49e-4,-0.57943 z m 3.102094,-0.83118 -1e-4,0.57938 1.560219,-0.41841 9.8e-5,-0.57943 z m 3.105126,-0.83198 -1.48e-4,0.57939 1.557185,-0.41746 1.49e-4,-0.57943 z m 3.102095,-0.83123 -10e-5,0.57939 1.557136,-0.41745 1e-4,-0.57943 z m 3.102044,-0.83118 -1e-4,0.57939 1.557137,-0.41746 9.9e-5,-0.57938 z m 3.102144,-0.83122 -1.48e-4,0.57947 1.560216,-0.41842 1.5e-4,-0.57947 z m 3.105076,-0.83202 -9.9e-5,0.57938 1.557186,-0.41745 9.9e-5,-0.57939 z m 3.102096,-0.83119 -1e-4,0.57939 1.545008,-0.41402 1.48e-4,-0.57942 z m 3.102143,-0.83122 -1.49e-4,0.57947 1.545058,-0.41402 1e-4,-0.57947 z m 3.105077,-0.83202 -1.5e-4,0.57939 1.545109,-0.41402 1e-4,-0.57939 z m 3.102045,-0.83118 -10e-5,0.57943 1.545008,-0.41402 1e-4,-0.57939 z m 3.102193,-0.83123 -1.49e-4,0.57943 1.545058,-0.41402 9.9e-5,-0.57939 z m 3.101995,-0.83118 -1e-4,0.57943 1.545059,-0.41402 9.9e-5,-0.57943 z m 3.105177,-0.83206 -1.5e-4,0.57947 1.545008,-0.41402 9.9e-5,-0.57939 z m 3.102093,-0.83119 -9.9e-5,0.57943 1.545008,-0.41401 1e-4,-0.57939 z m 3.089968,-0.82794 -1e-4,0.57946 1.55719,-0.41745 1e-4,-0.57947 z m 3.10204,-0.83118 -10e-5,0.57942 1.56023,-0.41842 1e-4,-0.57938 z m 3.10519,-0.83203 -1.6e-4,0.57947 1.55709,-0.41745 1.1e-4,-0.57939 z m 3.10199,-0.83118 -1e-4,0.57943 1.55713,-0.41745 1e-4,-0.57947 z m 3.10214,-0.83122 -1e-4,0.57943 1.55714,-0.41746 9e-5,-0.57947 z m 3.10214,-0.83119 -9e-5,0.57939 1.56016,-0.41842 1e-4,-0.57942 z m 3.10504,-0.83202 -1e-4,0.57943 1.55713,-0.41745 1.5e-4,-0.57947 z m 3.10209,-0.83122 -9e-5,0.57943 1.54505,-0.41402 1.5e-4,-0.57947 z m 3.10215,-0.83123 -1e-4,0.57943 1.54505,-0.41402 1.1e-4,-0.57942 z m 3.10508,-0.83198 -1.1e-4,0.57943 1.54506,-0.41402 9e-5,-0.57946 z m 3.10207,-0.83121 -8e-5,0.57942 1.545,-0.41402 1.4e-4,-0.57946 z m 3.1021,-0.83123 -1e-4,0.57943 1.54502,-0.41402 1e-4,-0.57943 z m 3.10215,-0.83119 -1.5e-4,0.57943 1.54506,-0.41401 1e-4,-0.57939 z m 3.10507,-0.83201 -1e-4,0.57942 1.54512,-0.41402 1e-4,-0.57943 z m 3.10206,-0.83123 -1e-4,0.57947 1.54489,-0.4136 1.1e-4,-0.57939 z m 3.08995,-0.8279 -9e-5,0.57942 1.55713,-0.41745 1.1e-4,-0.57939 z m 3.1021,-0.83123 -10e-5,0.57943 1.56022,-0.41842 1.1e-4,-0.57943 z m 3.10523,-0.83203 -1e-4,0.57943 1.55708,-0.41745 1.6e-4,-0.57943 z m 3.10204,-0.83117 -1.4e-4,0.57942 1.55713,-0.41745 1e-4,-0.57939 z m 3.10205,-0.83118 -1e-4,0.57938 1.55708,-0.41745 1e-4,-0.57943 z m 3.1021,-0.83123 -1e-4,0.57939 1.56021,-0.41842 1e-4,-0.57947 z m 3.10517,-0.83202 -1.4e-4,0.57943 1.55713,-0.41746 1e-4,-0.57943 z m 3.10205,-0.83118 -1.1e-4,0.57938 1.54496,-0.4136 10e-5,-0.57943 z m 3.10203,-0.83122 -1e-4,0.57938 1.54492,-0.4136 9e-5,-0.57947 z m 3.10518,-0.83203 -1.5e-4,0.57943 1.54492,-0.4136 1e-4,-0.57939 z m 3.10209,-0.83118 -9e-5,0.57938 1.54496,-0.4136 9e-5,-0.57943 z m 3.1021,-0.83122 -1e-4,0.57938 1.54492,-0.4136 1e-4,-0.57947 z m 3.1021,-0.83119 -1.5e-4,0.57939 1.54506,-0.41402 1e-4,-0.57939 z m 3.10502,-0.83197 -1e-4,0.57939 1.54506,-0.41402 1.6e-4,-0.57944 z m 3.10215,-0.83123 -9e-5,0.57938 1.54495,-0.4136 9e-5,-0.57943 z m 3.08996,-0.82795 -1e-4,0.57943 1.55714,-0.41746 1e-4,-0.57938 z m 3.1021,-0.83122 -1e-4,0.57947 1.56016,-0.41842 1e-4,-0.57951 z m 3.10508,-0.83202 -1e-4,0.57938 1.55714,-0.41745 8e-5,-0.57938 z m 3.10209,-0.83118 -9e-5,0.57938 1.55712,-0.41745 10e-5,-0.57939 z m 3.10215,-0.83123 -1e-4,0.57947 1.55718,-0.41746 1e-4,-0.57943 z M 4.3367498,264.5813 l -1.084e-4,0.57942 1.1603387,-0.31109 1.046e-4,-0.57939 z m 2.7052584,-0.72492 -1.047e-4,0.57944 1.5571763,-0.41747 1.095e-4,-0.57942 z m 3.1021338,-0.83118 -1.08e-4,0.57939 1.560171,-0.41841 1.19e-4,-0.57943 z m 3.105038,-0.83202 -1e-4,0.57943 1.557184,-0.41746 10e-5,-0.57941 z m 3.102093,-0.83121 -9.9e-5,0.57942 1.557086,-0.41745 10e-5,-0.57943 z m 3.102145,-0.83119 -10e-5,0.57943 1.557136,-0.41745 1.48e-4,-0.57944 z m 3.102094,-0.83122 -1.5e-4,0.57943 1.560218,-0.41842 1.49e-4,-0.57939 z m 3.105076,-0.83198 -10e-5,0.57946 1.557086,-0.41745 10e-5,-0.57942 z m 3.102095,-0.83123 -1.5e-4,0.57947 1.544909,-0.41359 9.9e-5,-0.57939 z m 3.102044,-0.83114 -9.9e-5,0.57939 1.544959,-0.4136 9.8e-5,-0.57944 z m 3.105177,-0.83207 -10e-5,0.57948 1.545057,-0.41403 10e-5,-0.57942 z m 3.102094,-0.83122 -1e-4,0.57948 1.544859,-0.41361 1.49e-4,-0.57939 z m 3.102044,-0.83114 -9.9e-5,0.57939 1.544959,-0.4136 9.8e-5,-0.57939 z m 3.102044,-0.83122 -9.8e-5,0.57939 1.544909,-0.4136 9.8e-5,-0.57948 z m 3.105227,-0.83201 -10e-5,0.57941 1.544909,-0.4136 1.48e-4,-0.57938 z m 3.102094,-0.8312 -1.49e-4,0.57939 1.544908,-0.4136 1.49e-4,-0.57942 z m 3.089917,-0.82798 -10e-5,0.57939 1.557086,-0.41745 10e-5,-0.57944 z m 3.102094,-0.83118 -1.49e-4,0.57943 1.560268,-0.41842 9.8e-5,-0.57943 z m 3.105076,-0.83198 -9.8e-5,0.57938 1.557234,-0.41746 1e-4,-0.57942 z m 3.102145,-0.83123 -10e-5,0.57938 1.557087,-0.41745 9.9e-5,-0.57938 z m 3.102095,-0.83119 -1.51e-4,0.57939 1.557137,-0.41745 9.9e-5,-0.57939 z m 3.102044,-0.83122 -9.9e-5,0.57947 1.560216,-0.41842 1e-4,-0.57946 z m 3.105125,-0.83202 -9.9e-5,0.57938 1.557186,-0.41745 9.9e-5,-0.57938 z m 3.102145,-0.83118 -1e-4,0.57938 1.54501,-0.41401 9.7e-5,-0.57938 z m 3.102044,-0.83122 -9.9e-5,0.57946 1.545058,-0.41401 1.49e-4,-0.57943 z m 3.105077,-0.83202 -1e-4,0.57938 1.54491,-0.4136 9.9e-5,-0.57939 z m 3.102144,-0.83119 -1.49e-4,0.57943 1.545059,-0.41402 9.8e-5,-0.57938 z m 3.102144,-0.83123 -1.49e-4,0.57944 1.545058,-0.41402 9.9e-5,-0.57943 z m 3.101995,-0.83117 -1e-4,0.57942 1.545009,-0.41401 1.49e-4,-0.57943 z m 3.105177,-0.83202 -10e-5,0.57942 1.545008,-0.41401 9.9e-5,-0.5794 z m 3.102093,-0.83123 -1.49e-4,0.57943 1.545058,-0.41402 1e-4,-0.57939 z m 3.089968,-0.82795 -1e-4,0.57947 1.55714,-0.41746 1.5e-4,-0.57946 z m 3.10204,-0.83118 -10e-5,0.57943 1.56023,-0.41842 1.5e-4,-0.57938 z m 3.10513,-0.83203 -10e-5,0.57948 1.55709,-0.41746 1.1e-4,-0.57938 z m 3.10205,-0.83118 -1e-4,0.57944 1.55713,-0.41746 1e-4,-0.57947 z m 3.10219,-0.83122 -1.5e-4,0.57943 1.55709,-0.41745 1.4e-4,-0.57946 z m 3.10205,-0.83118 -1e-4,0.57939 1.56006,-0.41801 1e-4,-0.57946 z m 3.10508,-0.83201 -1e-4,0.57942 1.55718,-0.41745 1e-4,-0.57948 z m 3.10209,-0.83123 -9e-5,0.57943 1.54485,-0.4136 1.4e-4,-0.57943 z m 3.10219,-0.83123 -1.4e-4,0.57942 1.54495,-0.41359 1e-4,-0.57939 z m 3.10504,-0.83198 -1.1e-4,0.57943 1.545,-0.41401 1.5e-4,-0.57948 z m 3.10214,-0.83122 -1.1e-4,0.57943 1.54492,-0.41361 9e-5,-0.57947 z m 3.10203,-0.83123 -1e-4,0.57944 1.54487,-0.41361 1.5e-4,-0.57939 z m 3.1021,-0.83118 -1e-4,0.57943 1.54492,-0.41361 10e-5,-0.57937 z m 3.10512,-0.83202 -1e-4,0.57943 1.54492,-0.4136 10e-5,-0.5794 z m 3.1021,-0.83121 -1.4e-4,0.57945 1.54489,-0.4136 1.1e-4,-0.57938 z m 3.08991,-0.82791 -9e-5,0.57941 1.55713,-0.41744 1.1e-4,-0.57939 z m 3.10215,-0.83123 -1.5e-4,0.57943 1.56022,-0.41842 1.5e-4,-0.57947 z m 3.10512,-0.83203 -9e-5,0.57948 1.55713,-0.41745 1e-4,-0.57944 z m 3.10205,-0.83118 -9e-5,0.57944 1.55713,-0.41747 1e-4,-0.57938 z m 3.10215,-0.83119 -10e-5,0.57939 1.55703,-0.41744 1.6e-4,-0.57944 z m 3.10199,-0.83117 -9e-5,0.57938 1.56021,-0.41841 1e-4,-0.57943 z m 3.10518,-0.83206 -9e-5,0.57942 1.55723,-0.41746 9e-5,-0.57942 z m 3.1021,-0.83118 -1.1e-4,0.57938 1.54501,-0.41402 1e-4,-0.57939 z m 3.10203,-0.83118 -1e-4,0.57938 1.54507,-0.41402 9e-5,-0.57942 z m 3.10513,-0.83207 -1e-4,0.57943 1.54496,-0.41361 1e-4,-0.57939 z m 3.10214,-0.83118 -9e-5,0.57938 1.54496,-0.4136 9e-5,-0.57943 z m 3.1021,-0.83118 -1.4e-4,0.57943 1.54506,-0.41402 9e-5,-0.57944 z m 3.10205,-0.83122 -1e-4,0.57942 1.54506,-0.41402 1e-4,-0.57939 z m 3.10507,-0.83198 -1e-4,0.57938 1.54491,-0.41361 1e-4,-0.57941 z m 3.10215,-0.83119 -9e-5,0.57938 1.54504,-0.41401 1.1e-4,-0.57939 z m 3.08996,-0.828 -1e-4,0.57944 1.55704,-0.41746 1e-4,-0.57942 z m 3.10214,-0.83122 -1.4e-4,0.57948 1.56016,-0.41842 1.4e-4,-0.57944 z m 3.10508,-0.83202 -1.4e-4,0.57939 1.55714,-0.41745 1.4e-4,-0.5794 z m 3.10205,-0.83118 -9e-5,0.57943 1.55718,-0.41746 1e-4,-0.57939 z m 3.10215,-0.83123 -1.5e-4,0.57947 1.55713,-0.41744 1e-4,-0.57943 z"
         id="path1085" />
      <path
         transform="matrix(1.7056638,-0.6356095,0.17857825,1.6578139,-147.00464,-141.80872)"
         style="opacity:1;fill:#ffffff;fill-opacity:1;stroke:none;stroke-width:0.37872416;stroke-linecap:round;stroke-linejoin:miter;stroke-miterlimit:4;stroke-dasharray:none;stroke-dashoffset:0;stroke-opacity:1"
         d="m 73.432702,254.92719 -2.925893,-2.67563 -3.418252,2.00884 1.640532,-3.60951 -2.966819,-2.63018 3.939797,0.44484 1.584657,-3.63439 0.794397,3.88443 3.94619,0.38402 -3.448832,1.95587 z"
         id="path1142" />
      <path
         transform="matrix(1.7056638,-0.6356095,0.17857825,1.6578139,28.270944,-189.0268)"
         style="opacity:1;fill:#ffffff;fill-opacity:1;stroke:none;stroke-width:0.37872416;stroke-linecap:round;stroke-linejoin:miter;stroke-miterlimit:4;stroke-dasharray:none;stroke-dashoffset:0;stroke-opacity:1"
         d="m 73.432702,254.92719 -2.925893,-2.67563 -3.418252,2.00884 1.640532,-3.60951 -2.966819,-2.63018 3.939797,0.44484 1.584657,-3.63439 0.794397,3.88443 3.94619,0.38402 -3.448832,1.95587 z"
         id="path1144" />
    </g>
  </g>
</svg>
